<?xml version="1.0" encoding="iso-8859-1"?>
<!-- Generator: Adobe Illustrator 19.0.0, SVG Export Plug-In . SVG Version: 6.00 Build 0)  -->
<svg xmlns="http://www.w3.org/2000/svg" xmlns:xlink="http://www.w3.org/1999/xlink" version="1.1" id="Layer_1" x="0px" y="0px" viewBox="0 0 512.001 512.001" style="enable-background:new 0 0 512.001 512.001;" xml:space="preserve" width="512px" height="512px">
<g>
	<g>
		<path d="M356.174,66.783h-6.375l16.696-33.391h23.071c9.217,0,16.696-7.473,16.696-16.696C406.261,7.473,398.783,0,389.566,0    h-267.13c-9.217,0-16.696,7.473-16.696,16.696c0,9.223,7.479,16.696,16.696,16.696h23.071l16.696,33.391h-6.375    c-46.032,0-83.478,37.446-83.478,83.478v211.478c0,41.993,31.193,76.741,71.608,82.534l-39.227,39.227    c-6.521,6.516-6.521,17.092,0,23.609c6.521,6.521,17.086,6.522,23.609,0l61.891-61.892h131.544l61.891,61.891    c6.521,6.521,17.086,6.522,23.609,0c6.521-6.516,6.521-17.092,0-23.609l-39.227-39.227c40.415-5.792,71.608-40.54,71.608-82.533    V150.261C439.653,104.229,402.206,66.783,356.174,66.783z M172.522,300.522h-66.783V166.957h66.783V300.522z M256.001,384.002    c-9.22,0-16.696-7.475-16.696-16.696s7.475-16.696,16.696-16.696c9.22,0,16.696,7.475,16.696,16.696    S265.222,384.002,256.001,384.002z M306.087,300.522H205.913V166.957h100.174V300.522z M312.463,66.783H199.538l-16.696-33.391    h146.316L312.463,66.783z M406.261,300.522h-66.783V166.957h66.783V300.522z" fill="#5e3501"/>
	</g>
</g>
<g>
</g>
<g>
</g>
<g>
</g>
<g>
</g>
<g>
</g>
<g>
</g>
<g>
</g>
<g>
</g>
<g>
</g>
<g>
</g>
<g>
</g>
<g>
</g>
<g>
</g>
<g>
</g>
<g>
</g>
</svg>
